<?xml version="1.0" standalone="no"?>
<!DOCTYPE svg PUBLIC "-//W3C//DTD SVG 20010904//EN"
 "http://www.w3.org/TR/2001/REC-SVG-20010904/DTD/svg10.dtd">
<svg version="1.0" xmlns="http://www.w3.org/2000/svg"
 width="213.000000pt" height="227.000000pt" viewBox="0 0 213.000000 227.000000"
 preserveAspectRatio="xMidYMid meet">

<g transform="translate(0.000000,227.000000) scale(0.100000,-0.100000)"
fill="#000000" stroke="none">
<path d="M568 1683 c-269 -268 -487 -492 -485 -498 2 -6 55 -12 121 -15 101
-4 120 -8 132 -24 12 -16 14 -98 14 -476 0 -378 2 -460 14 -476 13 -18 30 -19
226 -22 156 -2 215 0 226 9 8 7 39 53 69 103 59 99 99 209 110 296 19 156 -72
338 -215 430 -27 17 -51 39 -54 48 -2 9 -10 43 -17 75 -15 68 -9 77 56 77 22
0 57 3 77 6 36 6 40 4 121 -79 185 -186 229 -386 138 -624 -34 -88 -107 -204
-175 -280 -26 -28 -46 -54 -46 -57 0 -3 195 -6 433 -6 328 0 438 3 457 13 l25
13 5 468 5 468 24 19 c20 16 40 19 132 19 96 0 109 2 109 17 0 9 -217 234
-482 500 -378 378 -488 483 -508 483 -19 0 -132 -107 -512 -487z m746 -377
c68 -28 97 -127 56 -193 -53 -88 -190 -82 -233 10 -29 61 -17 116 35 163 40
37 86 43 142 20z m390 -151 c35 -15 36 -17 36 -69 l0 -53 -61 -7 c-100 -10
-197 -63 -294 -160 -45 -44 -104 -115 -131 -158 -27 -42 -55 -84 -61 -95 -13
-18 19 76 51 151 22 53 97 164 152 225 50 56 119 109 197 152 61 33 63 34 111
14z"/>
</g>
</svg>
